HIERARCHY
ROOT hip
{
	OFFSET 0.000000 0.000000 0.000000 
	CHANNELS 6 Xposition Yposition Zposition Xrotation Zrotation Yrotation
	JOINT abdomen
	{
		OFFSET 0.000000 3.402643 0.000000 
		CHANNELS 3 Xrotation Zrotation Yrotation
		JOINT chest
		{
			OFFSET 0.000000 8.438565 -0.680529 
			CHANNELS 3 Xrotation Zrotation Yrotation
			JOINT neck
			{
				OFFSET 0.000000 10.207942 -0.272212 
				CHANNELS 3 Xrotation Zrotation Yrotation
				JOINT head
				{
					OFFSET 0.000000 3.130431 0.000000 
					CHANNELS 3 Xrotation Zrotation Yrotation
					End Site
					{
						OFFSET 0.000000 3.130435 0.000000 
					}
				}
			}
			JOINT lCollar
			{
				OFFSET 3.470700 6.669187 -0.816635 
				CHANNELS 3 Yrotation Zrotation Xrotation
				JOINT lShldr
				{
					OFFSET 3.198488 0.000000 0.000000 
					CHANNELS 3 Zrotation Yrotation Xrotation
					JOINT lForeArm
					{
						OFFSET 10.139888 0.000000 0.000000 
						CHANNELS 3 Yrotation Zrotation Xrotation
						JOINT lHand
						{
							OFFSET 8.370511 0.000000 0.000000 
							CHANNELS 3 Zrotation Yrotation Xrotation
							End Site
							{
								OFFSET 4.083176 0.000000 0.000000 
							}
						}
					}
				}
			}
			JOINT rCollar
			{
				OFFSET -3.470700 6.669187 -0.816635 
				CHANNELS 3 Yrotation Zrotation Xrotation
				JOINT rShldr
				{
					OFFSET -3.198488 0.000000 0.000000 
					CHANNELS 3 Zrotation Yrotation Xrotation
					JOINT rForeArm
					{
						OFFSET -10.139888 0.000000 0.000000 
						CHANNELS 3 Yrotation Zrotation Xrotation
						JOINT rHand
						{
							OFFSET -8.370511 0.000000 0.000000 
							CHANNELS 3 Zrotation Yrotation Xrotation
							End Site
							{
								OFFSET -4.083176 0.000000 0.000000 
							}
						}
					}
				}
			}
		}
	}
	JOINT lThigh
	{
		OFFSET 5.308129 -1.633274 1.361059 
		CHANNELS 3 Xrotation Zrotation Yrotation
		JOINT lShin
		{
			OFFSET -2.041588 -20.007561 0.000000 
			CHANNELS 3 Xrotation Zrotation Yrotation
			JOINT lFoot
			{
				OFFSET 0.000000 -19.190928 -1.224953 
				CHANNELS 3 Xrotation Yrotation Zrotation
				End Site
				{
					OFFSET 0.000000 -2.449906 4.627600 
				}
			}
		}
	}
	JOINT rThigh
	{
		OFFSET -5.308129 -1.633274 1.361059 
		CHANNELS 3 Xrotation Zrotation Yrotation
		JOINT rShin
		{
			OFFSET 2.041588 -20.007561 0.000000 
			CHANNELS 3 Xrotation Zrotation Yrotation
			JOINT rFoot
			{
				OFFSET 0.000000 -19.190928 -1.224953 
				CHANNELS 3 Xrotation Yrotation Zrotation
				End Site
				{
					OFFSET 0.000000 -2.449906 4.627600 
				}
			}
		}
	}
}
MOTION
Frames: 15
Frame Time: 0.016667
18.398584 10.770326 71.363632 -18.024273 1.552202 11.146901 28.135664 2.471200 -1.600101 -1.369596 2.882456 -6.509252 -9.277921 -0.804347 0.101941 11.854936 -3.359530 4.333602 -11.251743 -5.337194 -0.274055 -70.873260 -11.397176 12.987328 -81.117409 -5.000000 3.442244 -25.729338 -6.174523 29.330215 4.777558 5.238856 -0.279602 64.497093 -7.972868 -12.373878 35.748756 5.000000 27.104078 21.108377 -10.795724 -10.074176 6.628861 20.758526 10.337787 24.890827 -6.211506 -3.297176 -1.454443 2.853107 -7.506543 20.215170 -9.450400 -11.132613 22.253736 7.330842 3.351170 -4.363303 -27.140184 9.414525 
18.809675 10.716996 71.703499 -17.751343 0.956307 11.691223 27.990871 3.280656 -1.030011 -1.384625 2.814963 -6.235079 -9.571260 -0.987806 0.129696 11.485339 -3.255333 3.589285 -11.093892 -4.995856 -0.256425 -71.425308 -11.390790 13.004508 -80.410927 -5.000000 3.737176 -25.783680 -5.443135 28.416576 5.321198 4.536582 -0.242429 64.820198 -7.890768 -12.152756 34.773766 5.000000 27.915600 21.614222 -11.181040 -10.257541 7.352743 20.625122 10.724463 19.775284 -5.857795 -2.436019 -1.190983 2.447173 -7.371015 21.573503 -8.474958 -11.198051 19.844933 6.479426 2.578932 -3.654860 -26.905558 10.637844 
19.245716 10.509970 72.012444 -17.498138 0.563739 11.924493 27.952230 3.795117 -0.604859 -1.313466 2.786475 -5.902831 -9.903860 -1.209887 0.163292 11.119890 -3.101379 2.943598 -10.868375 -4.791054 -0.245027 -71.625946 -11.229422 12.732581 -79.402435 -5.000000 4.180826 -25.682247 -5.125045 27.113268 5.876160 4.126882 -0.221243 64.961937 -7.631093 -11.771385 33.876690 5.000000 28.461603 22.118011 -11.542759 -9.832416 7.828694 20.238937 10.885672 16.523094 -5.584586 -1.912041 -0.548009 2.326042 -7.603619 22.737652 -7.870039 -11.141636 18.014368 5.680422 2.057095 -3.576784 -26.794872 11.651505 
19.681746 10.302903 72.321358 -17.250193 0.162292 12.158262 27.917456 4.326103 -0.194043 -1.252759 2.757904 -5.580336 -10.226825 -1.431968 0.196885 10.750940 -2.946851 2.297910 -10.642893 -4.586250 -0.234476 -71.825706 -11.076498 12.445603 -78.399330 -5.000000 4.627790 -25.609743 -4.815214 25.811604 6.441041 3.717178 -0.200045 65.105362 -7.373641 -11.387384 32.981712 5.000000 29.010567 22.621752 -11.906040 -9.435220 8.289613 19.851946 11.060479 13.257462 -5.273110 -1.430231 0.181006 2.229944 -7.834789 23.907570 -7.303570 -11.083663 16.172630 4.887671 1.552870 -3.495675 -26.640757 12.710280 
20.111322 10.084149 72.607628 -16.889616 0.295998 12.109564 27.911709 4.163989 0.025681 -1.239895 2.709788 -5.286676 -10.491172 -1.546375 0.224063 10.386913 -2.840322 1.847790 -10.399440 -4.564983 -0.243046 -71.659904 -10.736089 11.979551 -76.955994 -5.000000 5.275624 -25.581554 -4.755846 24.735104 6.977652 3.757284 -0.192380 65.041283 -6.993677 -10.838623 32.011467 5.000000 29.357544 22.940754 -12.261066 -8.481415 8.482317 18.970030 10.781546 11.478417 -4.998759 -1.160023 0.444293 2.510241 -7.947636 24.924488 -7.352399 -11.096522 14.646315 4.115686 1.196875 -3.734393 -26.734886 13.462419 
20.536589 9.857615 72.878799 -16.456167 0.783614 11.885908 27.934586 3.554929 0.123231 -1.247252 2.651814 -5.042291 -10.706209 -1.594653 0.231365 10.043655 -2.762694 1.524962 -10.146045 -4.682055 -0.249082 -71.237869 -10.285721 11.388208 -75.210205 -5.000000 6.071279 -25.563637 -4.856700 23.818506 7.506173 4.088871 -0.209536 64.823792 -6.536941 -10.168745 30.977808 5.000000 29.555092 23.127729 -12.617744 -7.185566 8.464987 17.723427 10.215453 10.699690 -4.706787 -1.015532 0.461327 3.230616 -7.908545 25.828295 -7.870884 -11.103251 13.336136 3.424633 0.885099 -4.070210 -26.975222 14.148954 
20.956327 9.647313 73.145409 -16.041233 1.300941 11.614504 27.992092 2.911247 0.175258 -1.264311 2.593815 -4.778383 -10.931210 -1.622158 0.245398 9.716763 -2.684907 1.251372 -9.912281 -4.818630 -0.256941 -70.805573 -9.779341 10.747274 -73.194336 -5.000000 7.000924 -25.556540 -5.042514 23.118965 7.996008 4.488725 -0.230215 64.626328 -6.033840 -9.491503 29.925247 5.000000 29.652792 23.193060 -13.030777 -5.743590 8.394984 16.479673 9.538881 10.250291 -4.442815 -0.902589 0.339480 3.945481 -7.932713 26.670732 -8.455828 -11.190596 12.115247 2.741432 0.644181 -4.425782 -27.174690 14.779958 
21.353970 9.501949 73.393791 -15.660447 1.954750 11.129817 28.109888 2.069105 0.093373 -1.290466 2.506483 -4.465637 -11.155839 -1.562763 0.246288 9.497267 -2.636176 1.163125 -9.727917 -5.072226 -0.270043 -70.250839 -9.098842 9.859253 -70.132355 -5.000000 8.418584 -25.562716 -5.540016 23.285526 8.291923 5.161649 -0.265868 64.487526 -5.388079 -8.690066 28.697832 5.000000 29.380896 22.768732 -13.634027 -3.769837 8.179909 15.219608 8.445148 11.113170 -4.294487 -0.927979 -0.573935 5.006064 -7.906245 27.249105 -9.354512 -11.453468 11.339862 2.213309 0.465493 -4.664688 -27.216558 15.194799 
21.751596 9.356608 73.642151 -15.298219 2.620107 10.656041 28.247219 1.239095 0.005844 -1.317190 2.419096 -4.152478 -11.390010 -1.514485 0.238987 9.277182 -2.587427 1.085083 -9.543611 -5.325823 -0.283141 -69.716629 -8.407920 8.985583 -67.050873 -5.000000 9.875879 -25.579407 -6.034153 23.451777 8.588202 5.824819 -0.300215 64.363663 -4.742537 -7.900792 27.475811 5.000000 29.061707 22.331625 -14.229233 -1.798416 8.015998 13.962875 7.371372 11.953738 -4.129266 -0.939274 -1.509057 6.104192 -7.877992 27.832912 -10.261889 -11.730567 10.570719 1.694336 0.314227 -4.930410 -27.244318 15.598325 
22.129416 9.318656 73.883240 -15.065963 2.739642 10.158570 28.432064 1.031068 0.036717 -1.375527 2.370680 -3.839739 -11.654106 -1.551646 0.254480 9.085456 -2.587303 1.221663 -9.457639 -5.696433 -0.302268 -69.259956 -7.520854 7.825602 -63.011433 -5.000000 11.775947 -25.641981 -6.390064 24.215549 8.717905 6.322195 -0.325949 64.514618 -4.182820 -7.206022 26.492071 5.000000 28.079855 21.364767 -15.313264 0.179908 7.983454 13.314901 6.564189 12.869351 -4.128966 -1.026499 -2.458031 6.986091 -7.781091 28.033981 -10.898466 -11.974985 10.263826 1.510985 0.255643 -4.665793 -27.092836 15.934702 
22.502275 9.307581 74.122498 -14.878716 2.724628 9.649955 28.638309 0.983893 0.091239 -1.444350 2.331982 -3.517234 -11.927896 -1.628891 0.266162 8.890156 -2.606614 1.426971 -9.381727 -6.096297 -0.322890 -68.844360 -6.579723 6.602067 -58.741451 -5.000000 13.797658 -25.737682 -6.723843 25.117626 8.798707 6.770807 -0.349139 64.749596 -3.635350 -6.548139 25.547157 5.000000 26.890547 20.207273 -16.481768 2.208992 8.015662 12.821014 5.860524 13.823962 -4.150884 -1.100242 -3.507236 7.766642 -7.652180 28.120436 -11.454556 -12.202127 10.064513 1.393699 0.207772 -4.244409 -26.897696 16.243528 
22.858210 9.345727 74.357315 -14.731415 2.390971 9.168408 28.819908 1.280166 0.215157 -1.493874 2.303022 -3.233801 -12.231381 -1.723986 0.290415 8.670707 -2.625757 1.730279 -9.335025 -6.457146 -0.341486 -68.574806 -5.526120 5.199348 -54.223995 -5.000000 15.949921 -25.773386 -6.834780 25.960287 8.811450 7.052132 -0.374524 65.133415 -3.193903 -6.023493 24.819107 5.000000 25.502855 18.971384 -17.725254 3.828092 8.258088 12.652555 5.530031 14.319381 -4.160045 -1.167782 -4.331730 8.333752 -7.589359 27.970921 -11.863579 -12.401991 10.185124 1.442950 0.236774 -3.527027 -26.483301 16.589491 
23.188723 9.457669 74.585411 -14.632177 1.573472 8.704569 28.979630 2.111417 0.456071 -1.505157 2.303321 -2.980061 -12.574514 -1.856240 0.330157 8.415359 -2.634813 2.179921 -9.327133 -6.759473 -0.358205 -68.531570 -4.342130 3.507426 -49.343529 -5.000000 18.251907 -25.725767 -6.651218 26.684795 8.733583 7.091155 -0.376546 65.717239 -2.890003 -5.736064 24.448339 5.000000 23.835707 17.681820 -19.124277 4.812624 8.784635 12.983024 5.710439 14.202250 -4.140460 -1.176383 -4.842347 8.488781 -7.572890 27.428160 -11.991361 -12.510043 10.765522 1.703881 0.364331 -2.361970 -25.840096 16.946356 
23.519222 9.569637 74.813515 -14.529469 0.753850 8.243011 29.139587 2.946880 0.689516 -1.516439 2.303591 -2.725929 -12.917512 -1.999612 0.361704 8.149201 -2.653435 2.639315 -9.308303 -7.053627 -0.363748 -68.525459 -3.150965 1.811855 -44.542637 -5.000000 20.495834 -25.667038 -6.457889 27.422688 8.654576 7.141399 -0.369494 66.292397 -2.598399 -5.429721 24.034000 5.000000 22.156116 16.340021 -20.483358 5.840209 9.300615 13.304083 5.892453 14.067647 -4.111869 -1.172893 -5.313914 8.662940 -7.525783 26.887802 -12.126966 -12.620532 11.343358 1.967687 0.484674 -1.171395 -25.207718 17.315510 
23.787537 9.729071 75.017456 -14.419525 -0.396693 7.793118 29.394560 4.017817 1.014503 -1.513651 2.342754 -2.559592 -13.347473 -1.988494 0.369894 7.808453 -2.671547 3.225978 -9.416231 -7.131647 -0.367776 -68.685135 -1.795722 -0.243928 -39.764721 -5.000000 22.678764 -25.321190 -6.434085 26.996603 8.380507 7.043876 -0.364442 66.800507 -2.538607 -5.574313 24.491302 5.000000 20.814487 16.201654 -21.333977 5.177939 10.189423 13.939371 6.664417 12.964974 -3.984635 -1.020068 -5.097901 8.374418 -7.650850 25.711761 -12.138598 -12.419378 12.788034 2.574914 0.699906 0.485640 -24.466602 17.344101 
